<svg enable-background="new 0 0 2703.214 1272.608" version="1.1" viewBox="0 0 2703.214 1272.608" xml:space="preserve"
      xmlns="http://www.w3.org/2000/svg">
		<path d="m72.373 651.52c-10.264-439.09 468.9-747.49 889.47-506.49 138.55 79.397 256.17 196.99 382.63 325.42 5.749 5.839 8.404 5.236 13.785-0.188 197.81-199.4 484.22-503.45 885.4-385.16 168.83 49.784 286.15 159.32 346.26 324.38 201.16 552.41-375.87 1009.8-870.69 706.59-124.8-76.466-232.58-181.98-359.98-311.73-6.801-6.927-9.868-5.946-16.086 0.324-144.74 145.96-300.54 304.61-492.98 371.02-391.6 135.15-767.01-98.201-777.8-524.17zm245.04-8.512c12.485 253.64 207.59 371.88 415.47 326.92 179.65-38.857 330.36-196.86 458.72-328.81 4.325-4.446 1.9-6.251-1.072-9.025-111.49-104.07-220.36-231.18-357.58-296.6-265.94-126.78-516.43 59.149-515.54 307.52zm2067.8-10.72c-7.903-245.12-201.29-378.7-424.13-326.43-175.33 41.126-325.16 198.38-449.64 326.28-4.318 4.437-2.66 6.509 0.879 9.811 155.64 145.24 339.3 374.57 587.44 332.77 165.29-27.84 285.82-171.81 285.45-342.43z"/>
</svg>
